<?xml version="1.0" encoding="utf-8"?>
<!-- Generator: Adobe Illustrator 24.1.2, SVG Export Plug-In . SVG Version: 6.00 Build 0)  -->
<svg version="1.1" id="Layer_1" xmlns="http://www.w3.org/2000/svg" xmlns:xlink="http://www.w3.org/1999/xlink" x="0px" y="0px"
	 viewBox="0 0 121.4 121.5" style="enable-background:new 0 0 121.4 121.5;" xml:space="preserve">
<style type="text/css">
	.st0{fill:#009EFF;}
</style>
<g id="Layer_2_1_">
	<g id="Layer_1-2">
		<path class="st0" d="M61.2,0C27.6-0.3,0.2,26.7-0.1,60.3s26.7,61,60.3,61.3c33.6,0.3,61-26.7,61.3-60.3c0-0.1,0-0.1,0-0.2
			C121.6,27.6,94.7,0.3,61.2,0z M91.1,87.8c0.1,4-1,6-5.3,5.4c-2.2-0.1-4.3-0.1-6.5,0c-12,0-12,0-12-12.2V67.6H54
			c0,6.3-0.3,12.9,0.1,19.5c0.3,4.8-1.2,6.7-6.1,6.2c-4.3-0.3-8.7-0.3-13,0c-3.8,0.2-4.9-1.4-4.8-5c0.2-8.2,0-16.3,0-24.5v-5.1
			l-10-0.8c1.3-2,1.9-3.6,3.1-4.7c11.4-10.4,23-20.8,34.5-31.2c1.8-1.6,3.2-2.6,5.5-0.5c12.1,11,24.3,21.8,36.4,32.8
			c0.7,0.6,1,1.6,2,3.3L91,58.8C91,68.6,90.9,78.2,91.1,87.8z"/>
	</g>
</g>
</svg>
