<svg xmlns="http://www.w3.org/2000/svg" viewBox="0 0 121.45 121.51"><g id="Layer_2" data-name="Layer 2"><g id="Layer_1-2" data-name="Layer 1"><path d="M61.19,0a60.76,60.76,0,1,0,60.26,61.09A60.79,60.79,0,0,0,61.19,0ZM91.11,87.84c.1,4-1,6-5.27,5.44a56.15,56.15,0,0,0-6.49,0c-12,0-12,0-12-12.23V67.62H54c0,6.34-.28,12.93.09,19.48.27,4.76-1.15,6.67-6.09,6.22a88,88,0,0,0-13,0c-3.82.23-4.92-1.4-4.84-5,.17-8.16.05-16.33.05-24.5V58.73l-10-.8c1.29-2,1.92-3.61,3.06-4.65,11.44-10.44,23-20.77,34.46-31.18,1.77-1.61,3.18-2.59,5.47-.5,12.06,11,24.26,21.84,36.37,32.79.67.6,1,1.57,2,3.3L91,58.81C91,68.59,90.86,78.22,91.11,87.84Z"/></g></g></svg>