<?xml version="1.0" encoding="utf-8"?>
<!-- Generator: Adobe Illustrator 24.1.2, SVG Export Plug-In . SVG Version: 6.00 Build 0)  -->
<svg version="1.1" id="Layer_1" xmlns="http://www.w3.org/2000/svg" xmlns:xlink="http://www.w3.org/1999/xlink" x="0px" y="0px"
	 viewBox="0 0 48 48" style="enable-background:new 0 0 48 48;" xml:space="preserve">
<style type="text/css">
	.st0{fill:#FFFFFF;}
</style>
<path class="st0" d="M35.1,44.2H11.6v-27L24.9,3.3l2.6,1.9c0.4,0.3,0.8,0.7,1,1.2c0.2,0.4,0.3,1,0.3,1.6V8l-2.1,9.1h15.6
	c1.2,0,2.3,0.5,3.3,1.5c1,1,1.5,2,1.5,3.3v1.8c0,0.4-0.1,0.9-0.2,1.5c-0.1,0.6-0.3,1-0.4,1.4l-6,14c-0.4,1-1.1,1.8-2.1,2.5
	S36.2,44.2,35.1,44.2z M8.6,17.1v27H2.3v-27H8.6z"/>
</svg>
