<?xml version="1.0" encoding="utf-8"?>
<!-- Generator: Adobe Illustrator 24.1.2, SVG Export Plug-In . SVG Version: 6.00 Build 0)  -->
<svg version="1.1" id="Layer_1" xmlns="http://www.w3.org/2000/svg" xmlns:xlink="http://www.w3.org/1999/xlink" x="0px" y="0px"
	 viewBox="0 0 48 48" style="enable-background:new 0 0 48 48;" xml:space="preserve">
<style type="text/css">
	.st0{fill:#009EFF;}
</style>
<path class="st0" d="M24,23.6c1,0,1.8-0.3,2.5-1c0.7-0.7,1-1.5,1-2.5c0-1-0.4-1.8-1.1-2.5c-0.7-0.7-1.6-1-2.5-1
	c-1,0-1.8,0.4-2.5,1.1c-0.7,0.7-1,1.6-1,2.5s0.3,1.8,1,2.5C22.2,23.2,23,23.6,24,23.6z M24,44.3c-5.5-4.6-9.5-8.9-12.2-12.8
	s-4.1-7.6-4.1-11.1c0-5.1,1.6-9.1,4.9-12.1c3.3-3,7.1-4.5,11.4-4.5c4.3,0,8.1,1.5,11.4,4.5c3.3,3,4.9,7.1,4.9,12.1
	c0,3.5-1.4,7.2-4.1,11.1C33.5,35.4,29.5,39.7,24,44.3z"/>
</svg>
