<svg xmlns="http://www.w3.org/2000/svg" viewBox="0 0 121.15 121.09"><g id="Layer_2" data-name="Layer 2"><g id="Layer_1-2" data-name="Layer 1"><path d="M60.42,0C26.51.06,0,26.7,0,60.61a60.13,60.13,0,0,0,60.65,60.48c33.68,0,60.42-26.88,60.5-60.73C121.23,26.72,94.28-.06,60.42,0Zm22,74.81A11.25,11.25,0,0,1,71.15,86h-9v0h-.25c-1.32,0-2.63.12-4.24.19,0,3,0,5.71,0,8.4s-1.25,3.69-3.56,2.41C47.66,93.5,41.21,89.88,35,85.92c-1.25-.8-2.07-3.2-2.1-4.87-.17-15.75-.09-31.49-.17-47.25,0-3.13,1.37-4.29,4.4-4.27l10.76,0a11.38,11.38,0,0,1,1.31-.08h22A11.25,11.25,0,0,1,82.38,40.72V52.11H76.73V40.72a5.59,5.59,0,0,0-5.58-5.57h-22a5.45,5.45,0,0,0-2.45.57,79.24,79.24,0,0,0,7,4c3.12,1.43,4.19,3.59,4.15,7-.17,11.11-.07,22.23-.07,33.69H71.15a5.6,5.6,0,0,0,5.58-5.58V68.27h5.65ZM100,61c-4.53,3.47-9.17,6.78-14.58,10.73-.38-3.45-.64-5.77-1-8.63-3.59,0-7.17,0-10.75,0-2.37,0-4.85-.27-4.81-3.5,0-3,2.39-3.17,4.62-3.2,3.59,0,7.19,0,10.93,0,.3-2.82.56-5.14,1-8.8,5.5,4.06,10.2,7.47,14.78,11A2.52,2.52,0,0,1,100,61Z"/></g></g></svg>