<?xml version="1.0" encoding="utf-8"?>
<!-- Generator: Adobe Illustrator 24.1.2, SVG Export Plug-In . SVG Version: 6.00 Build 0)  -->
<svg version="1.1" id="Layer_1" xmlns="http://www.w3.org/2000/svg" xmlns:xlink="http://www.w3.org/1999/xlink" x="0px" y="0px"
	 viewBox="0 0 121.2 121.1" style="enable-background:new 0 0 121.2 121.1;" xml:space="preserve">
<style type="text/css">
	.st0{fill:#009EFF;}
</style>
<g id="Layer_2_1_">
	<g id="Layer_1-2">
		<path class="st0" d="M60.4,0C26.5,0.1,0,26.7,0,60.6c-0.2,33.2,26.6,60.3,59.8,60.5c0.3,0,0.6,0,0.9,0c33.7,0,60.4-26.9,60.5-60.7
			C121.2,26.7,94.3-0.1,60.4,0z M82.4,74.8C82.4,81,77.3,86,71.2,86h-9l0,0h-0.3c-1.3,0-2.6,0.1-4.2,0.2c0,3,0,5.7,0,8.4
			s-1.3,3.7-3.6,2.4c-6.4-3.5-12.9-7.1-19.1-11.1c-1.3-0.8-2.1-3.2-2.1-4.9c-0.2-15.8-0.1-31.5-0.2-47.3c0-3.1,1.4-4.3,4.4-4.3h10.8
			c0.4-0.1,0.9-0.1,1.3-0.1h22c6.2,0,11.2,5.1,11.2,11.3v11.4h-5.6V40.7c0-3.1-2.5-5.6-5.6-5.6h-22c-0.8,0-1.7,0.2-2.5,0.6
			c2.3,1.5,4.6,2.8,7,4c3.1,1.4,4.2,3.6,4.2,7c-0.2,11.1-0.1,22.2-0.1,33.7h13.4c3.1,0,5.6-2.5,5.6-5.6v-6.6h5.7L82.4,74.8z M100,61
			c-4.5,3.5-9.2,6.8-14.6,10.7c-0.4-3.4-0.6-5.8-1-8.6c-3.6,0-7.2,0-10.8,0c-2.4,0-4.8-0.3-4.8-3.5c0-3,2.4-3.2,4.6-3.2
			c3.6,0,7.2,0,10.9,0c0.3-2.8,0.6-5.1,1-8.8c5.5,4.1,10.2,7.5,14.8,11C100.5,59.4,100.5,60.3,100,61z"/>
	</g>
</g>
</svg>
