<svg xmlns="http://www.w3.org/2000/svg" viewBox="0 0 121.2 120.91"><g id="Layer_2" data-name="Layer 2"><g id="Layer_1-2" data-name="Layer 1"><path d="M60.83,120.86C29.53,122.19-.1,95.61,0,60.23A60.57,60.57,0,0,1,60.52,0c33.37-.16,59.58,26.35,60.65,59.4C122.26,93.07,93,122.39,60.83,120.86ZM70.73,23c-.4-.09-.79-.18-1.19-.25-17.23-3.33-36.22,8.4-41.79,26.8-6.24,20.64,6.16,42.78,26.74,48.12,20.31,5.27,38.06-6.93,43-18.53.36-1.53-.55-2.43-1.34-2.07C76.92,85.9,61,81.61,53.29,65.3,46,49.85,52.43,34.83,69.84,25.91l1.41-.7C71.88,24.92,71.46,23.15,70.73,23Z"/></g></g></svg>