<?xml version="1.0" encoding="utf-8"?>
<!-- Generator: Adobe Illustrator 24.1.2, SVG Export Plug-In . SVG Version: 6.00 Build 0)  -->
<svg version="1.1" id="Layer_1" xmlns="http://www.w3.org/2000/svg" xmlns:xlink="http://www.w3.org/1999/xlink" x="0px" y="0px"
	 viewBox="0 0 121.2 120.9" style="enable-background:new 0 0 121.2 120.9;" xml:space="preserve">
<style type="text/css">
	.st0{fill:#009EFF;}
</style>
<g id="Layer_2_1_">
	<g id="Layer_1-2">
		<path class="st0" d="M60.8,120.9C29.5,122.2-0.1,95.6,0,60.2C0.2,26.9,27.2,0,60.5,0c33.4-0.2,59.6,26.4,60.6,59.4
			C122.3,93.1,93,122.4,60.8,120.9z M70.7,23c-0.4-0.1-0.8-0.2-1.2-0.3c-17.2-3.3-36.2,8.4-41.8,26.8c-6.2,20.6,6.2,42.8,26.7,48.1
			c20.3,5.3,38.1-6.9,43-18.5c0.4-1.5-0.6-2.4-1.3-2.1C76.9,85.9,61,81.6,53.3,65.3C46,49.8,52.4,34.8,69.8,25.9l1.4-0.7
			C71.9,24.9,71.5,23.1,70.7,23z"/>
	</g>
</g>
</svg>
