<svg xmlns="http://www.w3.org/2000/svg" viewBox="0 0 121.27 121.23"><g id="Layer_2" data-name="Layer 2"><g id="Layer_1-2" data-name="Layer 1"><path d="M61,0C25.28-.23-.92,30.15,0,62.32c1,32.53,27.77,59.17,60.81,58.91C95.63,121,121.57,94,121.26,58.48,121,26.75,93.4.21,61,0Zm.67,104.48c-4.89.72-8.83-2.12-10.57-7.59H70.5C69.35,101.94,65.93,103.87,61.7,104.48ZM95.22,92.7c-11.49.12-23,.07-34.48.07s-23,.06-34.47-.07a5.88,5.88,0,0,1-1.82-.36c-1-.34-2-.85-3-1.18l1.11-2.6c.37-.87.75-1.73,1.13-2.59a1.58,1.58,0,0,1,.72-.68c8.41-4.25,9.32-11.43,9-20a83.47,83.47,0,0,1,2.26-22.6c1.61-6.69,7.09-11,13.22-14.2a9.89,9.89,0,0,0,4.22-4.68c1.43-3.56,3.68-5.35,7.43-5.5s6.81,1.75,7.41,5.29c.53,3.09,2.22,3.88,4.52,5,9.94,5,15.24,13.17,15.72,24.24.3,7,.27,14,0,21A7.51,7.51,0,0,0,91.55,81a33.12,33.12,0,0,1,6.06,5.17,8.88,8.88,0,0,1,1.67,5.1C99.29,91.72,96.65,92.69,95.22,92.7Z"/></g></g></svg>