<?xml version="1.0" encoding="utf-8"?>
<!-- Generator: Adobe Illustrator 24.1.2, SVG Export Plug-In . SVG Version: 6.00 Build 0)  -->
<svg version="1.1" id="Layer_1" xmlns="http://www.w3.org/2000/svg" xmlns:xlink="http://www.w3.org/1999/xlink" x="0px" y="0px"
	 viewBox="0 0 121.3 121.2" style="enable-background:new 0 0 121.3 121.2;" xml:space="preserve">
<style type="text/css">
	.st0{fill:#009EFF;}
</style>
<g id="Layer_2_1_">
	<g id="Layer_1-2">
		<path class="st0" d="M61,0C25.3-0.2-0.9,30.1,0,62.3c1,32.5,27.8,59.2,60.8,58.9c34.8-0.2,60.8-27.2,60.5-62.7
			C121,26.8,93.4,0.2,61,0z M61.7,104.5c-4.9,0.7-8.8-2.1-10.6-7.6h19.4C69.3,101.9,65.9,103.9,61.7,104.5L61.7,104.5z M95.2,92.7
			c-11.5,0.1-23,0.1-34.5,0.1s-23,0.1-34.5-0.1c-0.6,0-1.2-0.1-1.8-0.4c-1-0.3-2-0.8-3-1.2l1.1-2.6c0.4-0.9,0.8-1.7,1.1-2.6
			c0.2-0.3,0.4-0.5,0.7-0.7c8.4-4.3,9.3-11.4,9-20c-0.3-7.6,0.5-15.2,2.3-22.6c1.6-6.7,7.1-11,13.2-14.2c1.9-1.1,3.4-2.7,4.2-4.7
			c1.4-3.6,3.7-5.4,7.4-5.5s6.8,1.8,7.4,5.3c0.5,3.1,2.2,3.9,4.5,5c9.9,5,15.2,13.2,15.7,24.2c0.3,7,0.3,14,0,21
			c-0.3,2.8,1,5.6,3.4,7.2c2.2,1.5,4.3,3.2,6.1,5.2c1.1,1.5,1.7,3.3,1.7,5.1C99.3,91.7,96.7,92.7,95.2,92.7z"/>
	</g>
</g>
</svg>
