<svg xmlns="http://www.w3.org/2000/svg" viewBox="0 0 121.05 106.28"><g id="Layer_2" data-name="Layer 2"><g id="Layer_1-2" data-name="Layer 1"><path d="M99.79,106.28c-.81-9.67-5-16.75-13.47-20.53a32.4,32.4,0,0,0-11.9-3.14c-10.3-.29-20.65-.23-30.92.49-12,.84-19.85,8.35-22.21,20-.16.77-.4,1.52-.62,2.36C4.17,94.23-4.22,66.15,2.12,44,9,19.92,31.27,1.13,54.16.09,83.72-1.26,107.52,13.11,117,38,126.21,62.45,119.49,90.22,99.79,106.28ZM60.65,26.4A25.73,25.73,0,0,0,34.87,52.57C35,66.47,47.07,78.2,61,78S86.88,65.79,86.65,52A26,26,0,0,0,60.65,26.4Z"/></g></g></svg>