<?xml version="1.0" encoding="utf-8"?>
<!-- Generator: Adobe Illustrator 24.1.2, SVG Export Plug-In . SVG Version: 6.00 Build 0)  -->
<svg version="1.1" id="Layer_1" xmlns="http://www.w3.org/2000/svg" xmlns:xlink="http://www.w3.org/1999/xlink" x="0px" y="0px"
	 viewBox="0 0 121.3 121.3" style="enable-background:new 0 0 121.3 121.3;" xml:space="preserve">
<g id="Layer_2_1_">
	<g id="Layer_1-2">
		<path d="M100,106.5c-0.8-9.7-5-16.8-13.5-20.6c-3.7-1.8-7.8-2.9-11.9-3.1c-10.3-0.3-20.7-0.2-31,0.5c-12,0.8-19.9,8.4-22.3,20
			c-0.2,0.8-0.4,1.5-0.6,2.4C4.2,94.4-4.2,66.3,2.1,44.1C9,20,31.3,1.1,54.3,0.1c29.6-1.4,53.5,13,63,38
			C126.5,62.6,119.7,90.4,100,106.5z M60.8,26.5c-14.2,0-25.8,11.5-25.8,25.7c0,0.2,0,0.3,0,0.5c0.1,13.9,12.2,25.7,26.2,25.5
			c14-0.2,25.9-12.2,25.7-26.1C86.6,37.9,75,26.5,60.8,26.5z"/>
	</g>
</g>
</svg>
