<svg xmlns="http://www.w3.org/2000/svg" viewBox="0 0 121.32 121.19"><g id="Layer_2" data-name="Layer 2"><g id="Layer_1-2" data-name="Layer 1"><path d="M61.55,0C28.9-.45,1.34,26,.05,57.28c-1.41,34.26,25.42,64,60.34,63.91,33,.31,60.64-26.32,60.92-58.77C121.61,27.58,95.66.48,61.55,0ZM96.44,98c-2.36,2.22-5,1.74-7.13-.37q-7.52-7.33-14.85-14.85a34.09,34.09,0,0,1-3-4.05c-18.63,9.48-34.86,6.84-45-6.57a31.74,31.74,0,0,1,42.17-46c14.93,9.43,18.06,24.7,9.12,46.28L93.28,87.63c1.07,1,2.13,2.11,3.1,3.25C98.37,93.21,98.82,95.74,96.44,98Z"/><path d="M73.72,53.23A21.86,21.86,0,1,1,52,31.18,21.75,21.75,0,0,1,73.72,53.23Z"/></g></g></svg>