<?xml version="1.0" encoding="utf-8"?>
<!-- Generator: Adobe Illustrator 24.1.2, SVG Export Plug-In . SVG Version: 6.00 Build 0)  -->
<svg version="1.1" id="Layer_1" xmlns="http://www.w3.org/2000/svg" xmlns:xlink="http://www.w3.org/1999/xlink" x="0px" y="0px"
	 viewBox="0 0 121.3 121.2" style="enable-background:new 0 0 121.3 121.2;" xml:space="preserve">
<style type="text/css">
	.st0{fill:#009EFF;}
</style>
<g id="Layer_2_1_">
	<g id="Layer_1-2">
		<path class="st0" d="M61.5,0C28.9-0.4,1.3,26,0.1,57.3c-1.4,34.3,25.4,64,60.3,63.9c33,0.3,60.6-26.3,60.9-58.8
			C121.6,27.6,95.7,0.5,61.5,0z M96.4,98c-2.4,2.2-5,1.7-7.1-0.4c-5-4.9-10-9.8-14.8-14.8c-1.1-1.3-2.1-2.6-3-4.1
			c-18.6,9.5-34.9,6.8-45-6.6c-10.5-14-7.7-33.9,6.3-44.4c10.5-7.9,24.7-8.5,35.9-1.6c14.9,9.4,18.1,24.7,9.1,46.3l15.5,15.2
			c1.1,1,2.1,2.1,3.1,3.3C98.4,93.2,98.8,95.7,96.4,98z"/>
		<path class="st0" d="M73.7,53.2c-0.1,12.1-10,21.8-22,21.7s-21.8-10-21.7-22c0.1-12.1,9.9-21.7,22-21.7c12,0,21.7,9.8,21.7,21.8
			C73.7,53,73.7,53.1,73.7,53.2z"/>
	</g>
</g>
</svg>
