<?xml version="1.0" encoding="utf-8"?>
<!-- Generator: Adobe Illustrator 24.1.2, SVG Export Plug-In . SVG Version: 6.00 Build 0)  -->
<svg version="1.1" id="Layer_1" xmlns="http://www.w3.org/2000/svg" xmlns:xlink="http://www.w3.org/1999/xlink" x="0px" y="0px"
	 viewBox="0 0 48 48" style="enable-background:new 0 0 48 48;" xml:space="preserve">
<style type="text/css">
	.st0{fill:#009EFF;}
</style>
<path class="st0" d="M24,44.3c-2.8,0-5.5-0.5-8-1.6c-2.5-1.1-4.6-2.5-6.4-4.3c-1.8-1.8-3.3-4-4.3-6.5c-1-2.5-1.6-5.1-1.6-8
	s0.5-5.5,1.6-7.9c1-2.5,2.5-4.6,4.3-6.4c1.8-1.8,4-3.3,6.4-4.3c2.5-1,5.1-1.6,8-1.6s5.5,0.5,8,1.6c2.5,1,4.6,2.5,6.4,4.3
	c1.8,1.8,3.3,4,4.3,6.4c1.1,2.5,1.6,5.1,1.6,7.9s-0.5,5.5-1.6,8c-1.1,2.5-2.5,4.6-4.3,6.5c-1.8,1.8-4,3.3-6.4,4.3
	C29.5,43.8,26.8,44.3,24,44.3z M24,41c1.1-1.2,2.1-2.6,2.9-4.1c0.8-1.5,1.4-3.4,1.9-5.5h-9.6c0.5,2,1.1,3.8,1.9,5.4
	C21.9,38.4,22.8,39.8,24,41z M19.8,40.4c-0.8-1.3-1.6-2.6-2.1-4.1c-0.6-1.5-1.1-3.1-1.5-4.9H8.7c1.3,2.4,2.7,4.2,4.4,5.6
	S17,39.4,19.8,40.4z M28.3,40.4c2.4-0.8,4.5-1.9,6.4-3.4c1.9-1.5,3.4-3.4,4.6-5.5h-7.4c-0.4,1.8-0.9,3.4-1.5,4.9
	C29.8,37.7,29.1,39.1,28.3,40.4z M7.7,28.4h7.9c-0.1-0.9-0.2-1.7-0.2-2.4c0-0.7,0-1.4,0-2.1c0-0.8,0-1.6,0-2.2
	c0-0.6,0.1-1.4,0.2-2.2H7.7c-0.2,0.8-0.4,1.5-0.5,2.1c-0.1,0.6-0.1,1.4-0.1,2.2c0,0.9,0,1.6,0.1,2.3C7.3,26.9,7.5,27.6,7.7,28.4z
	 M18.7,28.4h10.7c0.1-1,0.2-1.9,0.2-2.5c0-0.6,0-1.3,0-2c0-0.7,0-1.3,0-1.9c0-0.6-0.1-1.4-0.2-2.5H18.7c-0.1,1-0.2,1.9-0.3,2.5
	c0,0.6-0.1,1.2-0.1,1.9c0,0.7,0,1.4,0.1,2C18.5,26.6,18.6,27.4,18.7,28.4z M32.4,28.4h7.9c0.2-0.8,0.4-1.5,0.5-2.2
	c0.1-0.7,0.1-1.4,0.1-2.3c0-0.9,0-1.6-0.1-2.2c-0.1-0.6-0.2-1.3-0.5-2.1h-7.9c0.1,1.2,0.1,2.1,0.2,2.7c0,0.6,0,1.2,0,1.7
	c0,0.7,0,1.4-0.1,2.1C32.5,26.6,32.4,27.4,32.4,28.4z M31.9,16.5h7.4c-1.1-2.3-2.6-4.2-4.5-5.7c-1.9-1.5-4.1-2.6-6.6-3.2
	c0.8,1.2,1.6,2.6,2.1,4C30.9,13,31.4,14.7,31.9,16.5z M19.2,16.5h9.6c-0.4-1.8-1-3.5-1.8-5.1c-0.9-1.7-1.9-3.1-3-4.4
	c-1,0.9-1.9,2.1-2.7,3.5C20.6,12.1,19.9,14.1,19.2,16.5z M8.7,16.5h7.5c0.4-1.8,0.8-3.4,1.4-4.8c0.6-1.4,1.3-2.8,2.1-4.1
	c-2.5,0.6-4.7,1.7-6.5,3.2C11.3,12.3,9.8,14.2,8.7,16.5z"/>
</svg>
