<?xml version="1.0" encoding="utf-8"?>
<!-- Generator: Adobe Illustrator 24.1.2, SVG Export Plug-In . SVG Version: 6.00 Build 0)  -->
<svg version="1.1" id="Layer_1" xmlns="http://www.w3.org/2000/svg" xmlns:xlink="http://www.w3.org/1999/xlink" x="0px" y="0px"
	 viewBox="0 0 579 579" style="enable-background:new 0 0 579 579;" xml:space="preserve">
<style type="text/css">
	.st0{fill:#009EFF;}
</style>
<g id="Layer_2_1_">
	<g id="Layer_1-2">
		<polygon class="st0" points="278.4,142.8 193.4,142.8 108.7,289.4 24.1,435.8 23.8,436.5 108.8,436.5 146.5,371.3 151.5,362.6 
			278,143.4 		"/>
		<polygon class="st0" points="470.2,142.5 385.5,289.1 300.9,435.5 300.6,436.2 385.6,436.2 423.3,371 428.3,362.3 554.8,143.1 
			555.2,142.5 		"/>
		<path class="st0" d="M293.5,350.9l-10-43.7l28-27.9c1.6-1.5,2.1-3.8,1.5-5.9l-11-48.5c-0.7-3.2-3.9-5.2-7.2-4.5l-3.5,0.8
			c-3.2,0.7-5.2,3.9-4.5,7.2l9.9,43.7l-28,27.9c-1.5,1.5-2.1,3.8-1.5,5.8l11,48.5c0.7,3.2,3.9,5.2,7.2,4.5c0,0,0,0,0,0l3.5-0.8
			C292.2,357.3,294.2,354.1,293.5,350.9z"/>
		<path class="st0" d="M311.1,428.4l-9.9-43.7l28-27.9c1.6-1.5,2.1-3.8,1.5-5.9l-11-48.5c-0.7-3.2-3.9-5.2-7.2-4.5c0,0,0,0,0,0
			l-3.5,0.8c-3.2,0.7-5.2,3.9-4.5,7.2l9.9,43.7l-28,27.8c-1.5,1.5-2.1,3.8-1.5,5.8l11,48.5c0.7,3.2,3.9,5.2,7.2,4.5c0,0,0,0,0,0
			l3.5-0.8C309.8,434.8,311.8,431.6,311.1,428.4z"/>
		<path class="st0" d="M275.9,273.4l-9.9-43.7l28-27.9c1.6-1.5,2.1-3.8,1.5-5.9l-11-48.5c-0.7-3.2-3.9-5.2-7.2-4.5c0,0,0,0,0,0
			l-3.5,0.8c-3.2,0.7-5.2,3.9-4.5,7.2l9.9,43.7l-28.1,27.8c-1.5,1.5-2.1,3.8-1.5,5.8l11,48.5c0.7,3.2,3.9,5.2,7.2,4.5c0,0,0,0,0,0
			l3.5-0.8C274.6,279.8,276.6,276.6,275.9,273.4C275.9,273.4,275.9,273.4,275.9,273.4z"/>
	</g>
</g>
</svg>
