<svg xmlns="http://www.w3.org/2000/svg" viewBox="0 0 578.96 320.33"><defs><style>.cls-1{fill:#009eff;}</style></defs><g id="Layer_2" data-name="Layer 2"><g id="Layer_1-2" data-name="Layer 1"><polygon class="cls-1" points="277.4 0.33 184.76 0.33 92.51 160.09 0.41 319.62 0 320.33 92.64 320.33 133.66 249.3 139.11 239.85 276.99 1.04 277.4 0.33"/><polygon class="cls-1" points="486.32 0 394.07 159.76 301.97 319.29 301.56 320 394.2 320 435.22 248.97 440.67 239.52 578.55 0.71 578.96 0 486.32 0"/><path class="cls-1" d="M293.87,227.06,283,179.43l30.54-30.35a6.39,6.39,0,0,0,1.6-6.43l-12-52.8a6.52,6.52,0,0,0-7.8-4.9l-3.78.86a6.53,6.53,0,0,0-4.92,7.8l10.84,47.62L267,171.58a6.39,6.39,0,0,0-1.62,6.35l12,52.88a6.51,6.51,0,0,0,7.8,4.9l3.78-.86A6.53,6.53,0,0,0,293.87,227.06Z"/><path class="cls-1" d="M313.08,311.51l-10.84-47.62,30.54-30.35a6.39,6.39,0,0,0,1.6-6.43l-12-52.8a6.51,6.51,0,0,0-7.8-4.9l-3.78.86a6.53,6.53,0,0,0-4.92,7.79l10.84,47.63L286.17,256a6.36,6.36,0,0,0-1.62,6.35l12,52.88a6.51,6.51,0,0,0,7.8,4.9l3.78-.86A6.53,6.53,0,0,0,313.08,311.51Z"/><path class="cls-1" d="M274.66,142.6,263.83,95l30.53-30.36a6.38,6.38,0,0,0,1.6-6.43L284,5.4a6.51,6.51,0,0,0-7.8-4.9l-3.78.86a6.52,6.52,0,0,0-4.92,7.79l10.84,47.63L247.75,87.12a6.4,6.4,0,0,0-1.62,6.35l12,52.88a6.51,6.51,0,0,0,7.8,4.9l3.78-.86A6.52,6.52,0,0,0,274.66,142.6Z"/></g></g></svg>